Coordinates
version=1
nRows=5
nColumns=40
inDegrees=yes

Units are S.I. units (second, meters, Newtons, ...)
Angles are in degrees.

endheader
time	pelvis_tilt	pelvis_list	pelvis_rotation	pelvis_tx	pelvis_ty	pelvis_tz	hip_flexion_r	hip_adduction_r	hip_rotation_r	knee_angle_r	knee_angle_r_beta	ankle_angle_r	subtalar_angle_r	mtp_angle_r	hip_flexion_l	hip_adduction_l	hip_rotation_l	knee_angle_l	knee_angle_l_beta	ankle_angle_l	subtalar_angle_l	mtp_angle_l	lumbar_extension	lumbar_bending	lumbar_rotation	arm_flex_r	arm_add_r	arm_rot_r	elbow_flex_r	pro_sup_r	wrist_flex_r	wrist_dev_r	arm_flex_l	arm_add_l	arm_rot_l	elbow_flex_l	pro_sup_l	wrist_flex_l	wrist_dev_l
     39.20528571	     -5.28854369	     -4.65591839	     -1.96465537	      0.89765697	      0.93250379	      0.42623763	     33.73766740	     -4.24258845	     -7.51111327	     53.17430608	     53.17430608	     -0.52425112	    -16.15483634	      1.68879074	     14.00943485	     -4.29668591	     -7.48111577	     20.81225028	     20.81225028	     14.20811379	    -11.78431028	      2.06687479	    -11.15721088	      6.46535787	      2.24916336	      7.58843730	    -13.50882411	     -3.59822582	     33.01351747	     46.63738456	      0.00000000	      0.00000000	      6.66274059	    -16.76385329	     -3.05833234	     72.39456184	     46.85502171	      0.00000000	      0.00000000
     39.21807143	     -5.42280033	     -4.68761247	     -2.20929594	      0.89676745	      0.93262295	      0.42654782	     33.94985115	     -3.91338620	     -7.62413774	     49.72114743	     49.72114743	     -0.14115191	    -15.14577511	      1.60134904	     13.46347793	     -4.34284320	     -7.72474103	     20.32136123	     20.32136123	     14.35737206	    -11.59960827	      1.99634762	    -11.17169612	      6.56029525	      2.15410239	      6.24262609	    -13.56156628	     -3.42317373	     32.03377434	     46.64958142	      0.00000000	      0.00000000	      7.52479673	    -16.98220043	     -3.36664561	     73.18156369	     46.89936832	      0.00000000	      0.00000000
     39.23085714	     -5.41700183	     -4.63547167	     -2.51479399	      0.89601854	      0.93284381	      0.42702132	     33.85077128	     -3.66467438	     -7.75985761	     45.93496007	     45.93496007	      0.01551368	    -13.82245077	      1.14946316	     12.69284481	     -4.30736449	     -8.10175859	     19.73966017	     19.73966017	     14.54906155	    -11.32349284	      1.77997674	    -11.37181581	      6.48824951	      2.44414989	      4.86087847	    -13.67203924	     -3.09407428	     30.56191582	     46.66892494	      0.00000000	      0.00000000	      8.60926278	    -16.99441643	     -3.69944553	     74.36614358	     46.95783289	      0.00000000	      0.00000000
     39.24364286	     -5.58597493	     -4.56523214	     -2.76463667	      0.89528337	      0.93258027	      0.42755789	     33.80454687	     -3.44751254	     -8.05206053	     41.97247210	     41.97247210	      0.22017575	    -12.46441343	      0.84080416	     12.18662896	     -4.24870967	     -8.40630287	     19.27537390	     19.27537390	     14.74785626	    -11.15932983	      1.54148644	    -11.24942016	      6.43911022	      2.34890475	      3.55436862	    -13.60936428	     -2.85250680	     29.46149601	     46.68151938	      0.00000000	      0.00000000	      9.49702360	    -17.29405096	     -4.03810124	     75.22188263	     47.00943764	      0.00000000	      0.00000000
     39.25642857	     -5.82338862	     -4.47609646	     -2.97527723	      0.89460217	      0.93211586	      0.42827671	     33.65228329	     -3.19264367	     -8.36566633	     37.77701597	     37.77701597	      0.49180915	    -10.94266632	      0.80458288	     11.76222691	     -4.18334236	     -8.66507092	     18.81265648	     18.81265648	     14.92208908	    -10.97930853	      1.33813525	    -11.07239451	      6.33094722	      2.22799513	      2.19403277	    -13.48092055	     -2.68412436	     28.59742554	     46.69047379	      0.00000000	      0.00000000	     10.37828596	    -17.63744161	     -4.40437877	     76.02438645	     47.05898166	      0.00000000	      0.00000000
